<svg width="23" height="23" viewBox="0 0 23 23" fill="none" xmlns="http://www.w3.org/2000/svg">
<path d="M16.5505 4.85228H10.1757C9.67937 4.85228 9.2771 5.25456 9.2771 5.75085C9.2771 6.24715 9.67937 6.64943 10.1757 6.64943H16.5505C17.0468 6.64943 17.4491 6.24715 17.4491 5.75085C17.4491 5.25456 17.0468 4.85228 16.5505 4.85228Z" fill="#C7B299"/>
<path d="M16.5505 8.44653H10.1757C9.67937 8.44653 9.2771 8.8488 9.2771 9.3451C9.2771 9.84139 9.67937 10.2437 10.1757 10.2437H16.5505C17.0468 10.2437 17.4491 9.84139 17.4491 9.3451C17.4491 8.8488 17.0468 8.44653 16.5505 8.44653Z" fill="#C7B299"/>
<path d="M12.9163 12.0408H10.1757C9.67937 12.0408 9.2771 12.4431 9.2771 12.9394C9.2771 13.4357 9.67937 13.838 10.1757 13.838H12.9163C13.4126 13.838 13.8149 13.4357 13.8149 12.9394C13.8149 12.4431 13.4126 12.0408 12.9163 12.0408Z" fill="#C7B299"/>
<path fill-rule="evenodd" clip-rule="evenodd" d="M21.0932 11.3219C21.0932 11.8182 20.6909 12.2205 20.1946 12.2205C19.6983 12.2205 19.296 11.8182 19.2961 11.322V3.59429C19.2961 2.60336 18.4898 1.79714 17.4989 1.79714H9.23204C8.2411 1.79714 7.43489 2.60336 7.43489 3.59429V15.8142C7.43489 16.2942 7.6219 16.7456 7.96142 17.085C8.3008 17.4244 8.75204 17.6113 9.23204 17.6113H9.23244L17.4993 17.6093C18.49 17.6091 19.296 16.8028 19.296 15.8121C19.296 15.3158 19.6982 14.9136 20.1945 14.9136C20.6908 14.9136 21.0931 15.3158 21.0931 15.8121C21.0931 17.6417 19.7187 19.1566 17.9481 19.3784V19.4058C17.9481 21.3877 16.3357 23 14.3538 23H5.63775C3.65584 23 2.04346 21.3876 2.04346 19.4058V7.18525C2.04346 5.20335 3.65588 3.59096 5.63775 3.59096C5.63959 1.61058 7.25125 0 9.23204 0H17.4989C19.4807 0 21.0932 1.61238 21.0932 3.59429V11.3219ZM9.23293 19.4084H9.23204C8.27205 19.4084 7.36971 19.0347 6.6908 18.3559C6.01177 17.6771 5.63779 16.7743 5.63779 15.8141V5.38802C4.64686 5.38802 3.84065 6.19423 3.84065 7.18516V19.4057C3.84065 20.3966 4.64686 21.2028 5.63779 21.2028H14.3538C15.3445 21.2028 16.1505 20.3971 16.151 19.4067L9.23293 19.4084Z" fill="#C7B299"/>
</svg>
