<svg width="23" height="23" viewBox="0 0 23 23" fill="none" xmlns="http://www.w3.org/2000/svg">
<path fill-rule="evenodd" clip-rule="evenodd" d="M21.879 19.0118C22.3649 18.9107 22.8406 19.2225 22.9417 19.7082C23.1107 20.5198 22.9083 21.3534 22.3863 21.9951C21.867 22.6338 21.0969 23 20.2735 23H2.72643C1.9031 23 1.133 22.6338 0.61366 21.9951C0.0917581 21.3534 -0.110705 20.5198 0.0582913 19.7082C0.597489 17.1182 2.02587 14.7612 4.08024 13.0714C5.20059 12.1498 6.48064 11.451 7.84482 11.0019C6.35589 9.88659 5.39061 8.10858 5.39061 6.10938C5.39061 2.74068 8.13125 0 11.5 0C14.8687 0 17.6094 2.74068 17.6094 6.10938C17.6094 8.10737 16.6452 9.88443 15.1579 10.9998C17.5987 11.8031 19.7393 13.4019 21.2135 15.6006C21.4899 16.0127 21.3798 16.5708 20.9677 16.8471C20.5555 17.1234 19.9974 17.0134 19.7211 16.6012C17.9225 13.9188 14.9524 12.2912 11.7391 12.2141C11.6597 12.2172 11.58 12.2188 11.5 12.2188C11.4202 12.2188 11.3408 12.2172 11.2618 12.2142C6.70004 12.3245 2.74983 15.596 1.81743 20.0745C1.75917 20.3543 1.82853 20.6411 2.00772 20.8614C2.11149 20.989 2.34288 21.2031 2.72643 21.2031H20.2735C20.6571 21.2031 20.8885 20.9891 20.9922 20.8614C21.1714 20.6411 21.2408 20.3543 21.1825 20.0745C21.0814 19.5887 21.3932 19.1129 21.879 19.0118ZM11.5 1.79688C9.12204 1.79688 7.18748 3.73144 7.18748 6.10938C7.18748 8.41441 9.00525 10.3028 11.2826 10.4164C11.355 10.4151 11.4275 10.4144 11.5 10.4144C11.5728 10.4144 11.6456 10.415 11.7183 10.4164C13.9952 10.3023 15.8125 8.41409 15.8125 6.10938C15.8125 3.73144 13.8779 1.79688 11.5 1.79688Z" fill="#C7B299"/>
</svg>
