<svg width="45" height="45" viewBox="0 0 45 45" fill="none" xmlns="http://www.w3.org/2000/svg">
<path fill-rule="evenodd" clip-rule="evenodd" d="M45 24.1699C45 25.1408 44.213 25.9277 43.2422 25.9277C42.2713 25.9277 41.4844 25.1408 41.4844 24.1699V13.0287L26.2129 22.5249C25.0678 23.2369 23.7839 23.5929 22.5 23.5929C21.2161 23.5929 19.9322 23.2369 18.7871 22.5249L3.51562 13.0287V32.959C3.51562 34.8975 5.09273 36.4746 7.03125 36.4746H37.9688C39.9073 36.4746 41.4844 34.8975 41.4844 32.959C41.4844 31.9881 42.2713 31.2012 43.2422 31.2012C44.213 31.2012 45 31.9881 45 32.959C45 36.836 41.8458 39.9902 37.9688 39.9902H7.03125C3.15422 39.9902 0 36.836 0 32.959V12.6562C0 8.77922 3.15422 5.625 7.03125 5.625H37.9688C41.8458 5.625 45 8.77922 45 12.6562V24.1699ZM20.6436 19.5393C21.7886 20.2514 23.2114 20.2513 24.3564 19.5393L40.0176 9.80095C39.4403 9.38558 38.7326 9.14062 37.9687 9.14062H7.03124C6.26738 9.14062 5.55968 9.38549 4.98242 9.80086L20.6436 19.5393Z" fill="#CCA575"/>
</svg>
