<svg width="45" height="45" viewBox="0 0 45 45" fill="none" xmlns="http://www.w3.org/2000/svg">
<path fill-rule="evenodd" clip-rule="evenodd" d="M17.5781 43.2422C17.5781 44.2131 16.7912 45 15.8203 45H11.7773C7.9002 45 4.74609 41.8459 4.74609 37.9688V7.03125C4.74609 3.15411 7.9002 0 11.7773 0H33.3888C37.2656 0 40.4201 3.15411 40.4201 7.03125V17.4902C40.4201 18.4612 39.6328 19.248 38.6623 19.248C37.6913 19.248 36.9044 18.4612 36.9044 17.4902V7.03125C36.9044 5.09285 35.3272 3.51562 33.3888 3.51562H11.7773C9.83894 3.51562 8.26172 5.09285 8.26172 7.03125V37.9688C8.26172 39.9072 9.83894 41.4844 11.7773 41.4844H15.8203C16.7912 41.4844 17.5781 42.2713 17.5781 43.2422ZM33.3885 12.3047C33.3885 11.3338 32.6016 10.5469 31.6307 10.5469H13.5252C12.5546 10.5469 11.7674 11.3338 11.7674 12.3047C11.7674 13.2756 12.5546 14.0625 13.5252 14.0625H31.6307C32.6016 14.0625 33.3885 13.2756 33.3885 12.3047ZM24.6094 17.5781C25.5803 17.5781 26.3672 18.365 26.3672 19.3359C26.3672 20.3069 25.5803 21.0938 24.6094 21.0938H13.5252C12.5546 21.0938 11.7674 20.3069 11.7674 19.3359C11.7674 18.365 12.5546 17.5781 13.5252 17.5781H24.6094ZM13.5252 24.6094C12.5546 24.6094 11.7674 25.3963 11.7674 26.3672C11.7674 27.3381 12.5546 28.125 13.5252 28.125H20.8301C21.801 28.125 22.5879 27.3381 22.5879 26.3672C22.5879 25.3963 21.801 24.6094 20.8301 24.6094H13.5252ZM41.4538 45C42.5178 45 43.5158 44.5235 44.1922 43.6923C44.8781 42.8491 45.1452 41.7559 44.9248 40.693C44.9149 40.6453 44.9032 40.5986 44.8895 40.5523C44.2962 37.8815 42.8096 35.456 40.6899 33.7074C39.8708 33.0314 38.9706 32.4694 38.0161 32.03C39.0797 30.8218 39.7266 29.2387 39.7266 27.5067C39.7266 23.7263 36.6514 20.6512 32.8711 20.6512C29.0908 20.6512 26.0156 23.7263 26.0156 27.5067C26.0156 29.2387 26.6624 30.8218 27.7261 32.03C26.7716 32.4694 25.8714 33.0318 25.0523 33.7074C22.8893 35.4917 21.3852 37.9808 20.8174 40.7164C20.598 41.7731 20.862 42.8584 21.5418 43.6937C22.2174 44.5238 23.2186 45 24.2884 45H41.4538ZM29.5312 27.5067C29.5312 29.3483 31.0295 30.8465 32.8711 30.8465C34.7127 30.8465 36.2109 29.3483 36.2109 27.5067C36.2109 25.6651 34.7127 24.1668 32.8711 24.1668C31.0295 24.1668 29.5312 25.6651 29.5312 27.5067ZM41.4829 41.433C41.483 41.4336 41.4832 41.4341 41.4833 41.4346C41.4789 41.4633 41.4582 41.4807 41.4544 41.4839C41.4541 41.4841 41.4539 41.4843 41.4538 41.4844H24.2884C24.2825 41.4844 24.2794 41.4837 24.2788 41.4837C24.2788 41.4837 24.2786 41.4836 24.2783 41.4834C24.2746 41.4811 24.2523 41.4674 24.2595 41.4312C25.1034 37.3659 28.7255 34.415 32.8711 34.415C37.0167 34.415 40.6384 37.3659 41.4827 41.4312C41.4827 41.4317 41.4828 41.4324 41.4829 41.433Z" fill="#CCA575"/>
</svg>
