<svg width="223" height="17" viewBox="0 0 223 17" fill="none" xmlns="http://www.w3.org/2000/svg">
<path d="M24.3027 5.51172C23.498 5.51172 22.8652 5.79688 22.4043 6.36719C21.9434 6.9375 21.7129 7.72461 21.7129 8.72852C21.7129 9.7793 21.9336 10.5742 22.375 11.1133C22.8203 11.6523 23.4629 11.9219 24.3027 11.9219C24.666 11.9219 25.0176 11.8867 25.3574 11.8164C25.6973 11.7422 26.0508 11.6484 26.418 11.5352V12.7363C25.7461 12.9902 24.9844 13.1172 24.1328 13.1172C22.8789 13.1172 21.916 12.7383 21.2441 11.9805C20.5723 11.2188 20.2363 10.1309 20.2363 8.7168C20.2363 7.82617 20.3984 7.04688 20.7227 6.37891C21.0508 5.71094 21.5234 5.19922 22.1406 4.84375C22.7578 4.48828 23.4824 4.31055 24.3145 4.31055C25.1895 4.31055 25.998 4.49414 26.7402 4.86133L26.2363 6.02734C25.9473 5.89062 25.6406 5.77148 25.3164 5.66992C24.9961 5.56445 24.6582 5.51172 24.3027 5.51172ZM33.8652 9.74805C33.8652 10.8066 33.5938 11.6328 33.0508 12.2266C32.5078 12.8203 31.752 13.1172 30.7832 13.1172C30.1777 13.1172 29.6426 12.9805 29.1777 12.707C28.7129 12.4336 28.3555 12.041 28.1055 11.5293C27.8555 11.0176 27.7305 10.4238 27.7305 9.74805C27.7305 8.69727 28 7.87695 28.5391 7.28711C29.0781 6.69727 29.8379 6.40234 30.8184 6.40234C31.7559 6.40234 32.498 6.70508 33.0449 7.31055C33.5918 7.91211 33.8652 8.72461 33.8652 9.74805ZM29.1484 9.74805C29.1484 11.2441 29.7012 11.9922 30.8066 11.9922C31.9004 11.9922 32.4473 11.2441 32.4473 9.74805C32.4473 8.26758 31.8965 7.52734 30.7949 7.52734C30.2168 7.52734 29.7969 7.71875 29.5352 8.10156C29.2773 8.48438 29.1484 9.0332 29.1484 9.74805ZM38.7402 13.1172C37.9199 13.1172 37.2832 12.8223 36.8301 12.2324H36.748C36.8027 12.7793 36.8301 13.1113 36.8301 13.2285V15.8828H35.4531V6.51953H36.5664C36.5977 6.64062 36.6621 6.92969 36.7598 7.38672H36.8301C37.2598 6.73047 37.9043 6.40234 38.7637 6.40234C39.5723 6.40234 40.2012 6.69531 40.6504 7.28125C41.1035 7.86719 41.3301 8.68945 41.3301 9.74805C41.3301 10.8066 41.0996 11.6328 40.6387 12.2266C40.1816 12.8203 39.5488 13.1172 38.7402 13.1172ZM38.4062 7.52734C37.8594 7.52734 37.459 7.6875 37.2051 8.00781C36.9551 8.32812 36.8301 8.83984 36.8301 9.54297V9.74805C36.8301 10.5371 36.9551 11.1094 37.2051 11.4648C37.4551 11.8164 37.8633 11.9922 38.4297 11.9922C38.9062 11.9922 39.2734 11.7969 39.5312 11.4062C39.7891 11.0156 39.918 10.459 39.918 9.73633C39.918 9.00977 39.7891 8.46094 39.5312 8.08984C39.2773 7.71484 38.9023 7.52734 38.4062 7.52734ZM41.9453 6.51953H43.4453L44.7637 10.1934C44.9629 10.7168 45.0957 11.209 45.1621 11.6699H45.209C45.2441 11.4551 45.3086 11.1953 45.4023 10.8906C45.4961 10.582 45.9922 9.125 46.8906 6.51953H48.3789L45.6074 13.8613C45.1035 15.209 44.2637 15.8828 43.0879 15.8828C42.7832 15.8828 42.4863 15.8496 42.1973 15.7832V14.6934C42.4043 14.7402 42.6406 14.7637 42.9062 14.7637C43.5703 14.7637 44.0371 14.3789 44.3066 13.6094L44.5469 13L41.9453 6.51953ZM52.6504 6.40234C52.9277 6.40234 53.1562 6.42188 53.3359 6.46094L53.2012 7.74414C53.0059 7.69727 52.8027 7.67383 52.5918 7.67383C52.041 7.67383 51.5938 7.85352 51.25 8.21289C50.9102 8.57227 50.7402 9.03906 50.7402 9.61328V13H49.3633V6.51953H50.4414L50.623 7.66211H50.6934C50.9082 7.27539 51.1875 6.96875 51.5312 6.74219C51.8789 6.51562 52.252 6.40234 52.6504 6.40234ZM55.9199 13H54.543V6.51953H55.9199V13ZM54.4609 4.80273C54.4609 4.55664 54.5273 4.36719 54.6602 4.23438C54.7969 4.10156 54.9902 4.03516 55.2402 4.03516C55.4824 4.03516 55.6699 4.10156 55.8027 4.23438C55.9395 4.36719 56.0078 4.55664 56.0078 4.80273C56.0078 5.03711 55.9395 5.22266 55.8027 5.35938C55.6699 5.49219 55.4824 5.55859 55.2402 5.55859C54.9902 5.55859 54.7969 5.49219 54.6602 5.35938C54.5273 5.22266 54.4609 5.03711 54.4609 4.80273ZM63.3672 6.51953V7.27539L62.2598 7.48047C62.3613 7.61719 62.4453 7.78516 62.5117 7.98438C62.5781 8.18359 62.6113 8.39453 62.6113 8.61719C62.6113 9.28516 62.3809 9.81055 61.9199 10.1934C61.459 10.5762 60.8242 10.7676 60.0156 10.7676C59.8086 10.7676 59.6211 10.752 59.4531 10.7207C59.1562 10.9043 59.0078 11.1191 59.0078 11.3652C59.0078 11.5137 59.0762 11.625 59.2129 11.6992C59.3535 11.7734 59.6094 11.8105 59.9805 11.8105H61.1113C61.8262 11.8105 62.3691 11.9629 62.7402 12.2676C63.1113 12.5723 63.2969 13.0117 63.2969 13.5859C63.2969 14.3203 62.9941 14.8867 62.3887 15.2852C61.7832 15.6836 60.9082 15.8828 59.7637 15.8828C58.8809 15.8828 58.207 15.7266 57.7422 15.4141C57.2773 15.1016 57.0449 14.6562 57.0449 14.0781C57.0449 13.6797 57.1699 13.3438 57.4199 13.0703C57.6738 12.8008 58.0273 12.6133 58.4805 12.5078C58.2969 12.4297 58.1445 12.3047 58.0234 12.1328C57.9062 11.957 57.8477 11.7734 57.8477 11.582C57.8477 11.3398 57.916 11.1348 58.0527 10.9668C58.1895 10.7988 58.3926 10.6328 58.6621 10.4688C58.3262 10.3242 58.0527 10.0898 57.8418 9.76562C57.6348 9.4375 57.5312 9.05469 57.5312 8.61719C57.5312 7.91406 57.752 7.36914 58.1934 6.98242C58.6387 6.5957 59.2715 6.40234 60.0918 6.40234C60.2754 6.40234 60.4668 6.41602 60.666 6.44336C60.8691 6.4668 61.0215 6.49219 61.123 6.51953H63.3672ZM58.2754 14.0078C58.2754 14.3047 58.4082 14.5332 58.6738 14.6934C58.9434 14.8535 59.3203 14.9336 59.8047 14.9336C60.5547 14.9336 61.1133 14.8262 61.4805 14.6113C61.8477 14.3965 62.0312 14.1113 62.0312 13.7559C62.0312 13.4746 61.9297 13.2734 61.7266 13.1523C61.5273 13.0352 61.1543 12.9766 60.6074 12.9766H59.5645C59.1699 12.9766 58.8555 13.0684 58.6211 13.252C58.3906 13.4395 58.2754 13.6914 58.2754 14.0078ZM58.8672 8.61719C58.8672 9.02344 58.9707 9.33594 59.1777 9.55469C59.3887 9.77344 59.6895 9.88281 60.0801 9.88281C60.877 9.88281 61.2754 9.45703 61.2754 8.60547C61.2754 8.18359 61.1758 7.85938 60.9766 7.63281C60.7812 7.40234 60.4824 7.28711 60.0801 7.28711C59.6816 7.28711 59.3789 7.40039 59.1719 7.62695C58.9688 7.85352 58.8672 8.18359 58.8672 8.61719ZM70.2754 13H68.8926V9.01562C68.8926 8.51562 68.791 8.14258 68.5879 7.89648C68.3887 7.65039 68.0703 7.52734 67.6328 7.52734C67.0547 7.52734 66.6289 7.70117 66.3555 8.04883C66.0859 8.39258 65.9512 8.9707 65.9512 9.7832V13H64.5742V3.88281H65.9512V6.19727C65.9512 6.56836 65.9277 6.96484 65.8809 7.38672H65.9688C66.1562 7.07422 66.416 6.83203 66.748 6.66016C67.084 6.48828 67.4746 6.40234 67.9199 6.40234C69.4902 6.40234 70.2754 7.19336 70.2754 8.77539V13ZM74.6055 12.0039C74.9414 12.0039 75.2773 11.9512 75.6133 11.8457V12.8828C75.4609 12.9492 75.2637 13.0039 75.0215 13.0469C74.7832 13.0938 74.5352 13.1172 74.2773 13.1172C72.9727 13.1172 72.3203 12.4297 72.3203 11.0547V7.5625H71.4355V6.95312L72.3848 6.44922L72.8535 5.07812H73.7031V6.51953H75.5488V7.5625H73.7031V11.0312C73.7031 11.3633 73.7852 11.6094 73.9492 11.7695C74.1172 11.9258 74.3359 12.0039 74.6055 12.0039ZM85.3809 13H79.5742V11.957L81.7832 9.73633C82.4355 9.06836 82.8672 8.5957 83.0781 8.31836C83.293 8.03711 83.4492 7.77344 83.5469 7.52734C83.6445 7.28125 83.6934 7.01758 83.6934 6.73633C83.6934 6.34961 83.5762 6.04492 83.3418 5.82227C83.1113 5.59961 82.791 5.48828 82.3809 5.48828C82.0527 5.48828 81.7344 5.54883 81.4258 5.66992C81.1211 5.79102 80.7676 6.00977 80.3652 6.32617L79.6211 5.41797C80.0977 5.01562 80.5605 4.73047 81.0098 4.5625C81.459 4.39453 81.9375 4.31055 82.4453 4.31055C83.2422 4.31055 83.8809 4.51953 84.3613 4.9375C84.8418 5.35156 85.082 5.91016 85.082 6.61328C85.082 7 85.0117 7.36719 84.8711 7.71484C84.7344 8.0625 84.5215 8.42188 84.2324 8.79297C83.9473 9.16016 83.4707 9.6582 82.8027 10.2871L81.3145 11.7285V11.7871H85.3809V13ZM92.2363 8.7168C92.2363 10.2051 91.9961 11.3105 91.5156 12.0332C91.0391 12.7559 90.3086 13.1172 89.3242 13.1172C88.3711 13.1172 87.6484 12.7441 87.1562 11.998C86.6641 11.252 86.418 10.1582 86.418 8.7168C86.418 7.20508 86.6562 6.0918 87.1328 5.37695C87.6133 4.6582 88.3438 4.29883 89.3242 4.29883C90.2812 4.29883 91.0059 4.67383 91.498 5.42383C91.9902 6.17383 92.2363 7.27148 92.2363 8.7168ZM87.8125 8.7168C87.8125 9.88477 87.9316 10.7188 88.1699 11.2188C88.4121 11.7188 88.7969 11.9688 89.3242 11.9688C89.8516 11.9688 90.2363 11.7148 90.4785 11.207C90.7246 10.6992 90.8477 9.86914 90.8477 8.7168C90.8477 7.56836 90.7246 6.73828 90.4785 6.22656C90.2363 5.71094 89.8516 5.45312 89.3242 5.45312C88.7969 5.45312 88.4121 5.70508 88.1699 6.20898C87.9316 6.71289 87.8125 7.54883 87.8125 8.7168ZM99.0918 13H93.2852V11.957L95.4941 9.73633C96.1465 9.06836 96.5781 8.5957 96.7891 8.31836C97.0039 8.03711 97.1602 7.77344 97.2578 7.52734C97.3555 7.28125 97.4043 7.01758 97.4043 6.73633C97.4043 6.34961 97.2871 6.04492 97.0527 5.82227C96.8223 5.59961 96.502 5.48828 96.0918 5.48828C95.7637 5.48828 95.4453 5.54883 95.1367 5.66992C94.832 5.79102 94.4785 6.00977 94.0762 6.32617L93.332 5.41797C93.8086 5.01562 94.2715 4.73047 94.7207 4.5625C95.1699 4.39453 95.6484 4.31055 96.1562 4.31055C96.9531 4.31055 97.5918 4.51953 98.0723 4.9375C98.5527 5.35156 98.793 5.91016 98.793 6.61328C98.793 7 98.7227 7.36719 98.582 7.71484C98.4453 8.0625 98.2324 8.42188 97.9434 8.79297C97.6582 9.16016 97.1816 9.6582 96.5137 10.2871L95.0254 11.7285V11.7871H99.0918V13ZM105.947 8.7168C105.947 10.2051 105.707 11.3105 105.227 12.0332C104.75 12.7559 104.02 13.1172 103.035 13.1172C102.082 13.1172 101.359 12.7441 100.867 11.998C100.375 11.252 100.129 10.1582 100.129 8.7168C100.129 7.20508 100.367 6.0918 100.844 5.37695C101.324 4.6582 102.055 4.29883 103.035 4.29883C103.992 4.29883 104.717 4.67383 105.209 5.42383C105.701 6.17383 105.947 7.27148 105.947 8.7168ZM101.523 8.7168C101.523 9.88477 101.643 10.7188 101.881 11.2188C102.123 11.7188 102.508 11.9688 103.035 11.9688C103.562 11.9688 103.947 11.7148 104.189 11.207C104.436 10.6992 104.559 9.86914 104.559 8.7168C104.559 7.56836 104.436 6.73828 104.189 6.22656C103.947 5.71094 103.562 5.45312 103.035 5.45312C102.508 5.45312 102.123 5.70508 101.881 6.20898C101.643 6.71289 101.523 7.54883 101.523 8.7168ZM107.248 12.2676C107.248 11.9824 107.322 11.7637 107.471 11.6113C107.619 11.459 107.834 11.3828 108.115 11.3828C108.4 11.3828 108.617 11.4629 108.766 11.623C108.914 11.7793 108.988 11.9941 108.988 12.2676C108.988 12.5449 108.912 12.7656 108.76 12.9297C108.611 13.0898 108.396 13.1699 108.115 13.1699C107.834 13.1699 107.619 13.0898 107.471 12.9297C107.322 12.7695 107.248 12.5488 107.248 12.2676ZM119.336 13L118.48 10.6211H115.205L114.367 13H112.891L116.096 4.39844H117.619L120.824 13H119.336ZM118.111 9.41406L117.309 7.08203C117.25 6.92578 117.168 6.67969 117.062 6.34375C116.961 6.00781 116.891 5.76172 116.852 5.60547C116.746 6.08594 116.592 6.61133 116.389 7.18164L115.615 9.41406H118.111ZM123.186 13H121.809V3.88281H123.186V13ZM126.537 13H125.16V3.88281H126.537V13ZM133.176 8.41797H134.148C134.801 8.41797 135.273 8.29688 135.566 8.05469C135.859 7.8125 136.006 7.45312 136.006 6.97656C136.006 6.49219 135.848 6.14453 135.531 5.93359C135.215 5.72266 134.738 5.61719 134.102 5.61719H133.176V8.41797ZM133.176 9.57812V13H131.775V4.43359H134.195C135.301 4.43359 136.119 4.64062 136.65 5.05469C137.182 5.46875 137.447 6.09375 137.447 6.92969C137.447 7.99609 136.893 8.75586 135.783 9.20898L138.203 13H136.609L134.559 9.57812H133.176ZM140.682 13H139.305V6.51953H140.682V13ZM139.223 4.80273C139.223 4.55664 139.289 4.36719 139.422 4.23438C139.559 4.10156 139.752 4.03516 140.002 4.03516C140.244 4.03516 140.432 4.10156 140.564 4.23438C140.701 4.36719 140.77 4.55664 140.77 4.80273C140.77 5.03711 140.701 5.22266 140.564 5.35938C140.432 5.49219 140.244 5.55859 140.002 5.55859C139.752 5.55859 139.559 5.49219 139.422 5.35938C139.289 5.22266 139.223 5.03711 139.223 4.80273ZM148.129 6.51953V7.27539L147.021 7.48047C147.123 7.61719 147.207 7.78516 147.273 7.98438C147.34 8.18359 147.373 8.39453 147.373 8.61719C147.373 9.28516 147.143 9.81055 146.682 10.1934C146.221 10.5762 145.586 10.7676 144.777 10.7676C144.57 10.7676 144.383 10.752 144.215 10.7207C143.918 10.9043 143.77 11.1191 143.77 11.3652C143.77 11.5137 143.838 11.625 143.975 11.6992C144.115 11.7734 144.371 11.8105 144.742 11.8105H145.873C146.588 11.8105 147.131 11.9629 147.502 12.2676C147.873 12.5723 148.059 13.0117 148.059 13.5859C148.059 14.3203 147.756 14.8867 147.15 15.2852C146.545 15.6836 145.67 15.8828 144.525 15.8828C143.643 15.8828 142.969 15.7266 142.504 15.4141C142.039 15.1016 141.807 14.6562 141.807 14.0781C141.807 13.6797 141.932 13.3438 142.182 13.0703C142.436 12.8008 142.789 12.6133 143.242 12.5078C143.059 12.4297 142.906 12.3047 142.785 12.1328C142.668 11.957 142.609 11.7734 142.609 11.582C142.609 11.3398 142.678 11.1348 142.814 10.9668C142.951 10.7988 143.154 10.6328 143.424 10.4688C143.088 10.3242 142.814 10.0898 142.604 9.76562C142.396 9.4375 142.293 9.05469 142.293 8.61719C142.293 7.91406 142.514 7.36914 142.955 6.98242C143.4 6.5957 144.033 6.40234 144.854 6.40234C145.037 6.40234 145.229 6.41602 145.428 6.44336C145.631 6.4668 145.783 6.49219 145.885 6.51953H148.129ZM143.037 14.0078C143.037 14.3047 143.17 14.5332 143.436 14.6934C143.705 14.8535 144.082 14.9336 144.566 14.9336C145.316 14.9336 145.875 14.8262 146.242 14.6113C146.609 14.3965 146.793 14.1113 146.793 13.7559C146.793 13.4746 146.691 13.2734 146.488 13.1523C146.289 13.0352 145.916 12.9766 145.369 12.9766H144.326C143.932 12.9766 143.617 13.0684 143.383 13.252C143.152 13.4395 143.037 13.6914 143.037 14.0078ZM143.629 8.61719C143.629 9.02344 143.732 9.33594 143.939 9.55469C144.15 9.77344 144.451 9.88281 144.842 9.88281C145.639 9.88281 146.037 9.45703 146.037 8.60547C146.037 8.18359 145.938 7.85938 145.738 7.63281C145.543 7.40234 145.244 7.28711 144.842 7.28711C144.443 7.28711 144.141 7.40039 143.934 7.62695C143.73 7.85352 143.629 8.18359 143.629 8.61719ZM155.037 13H153.654V9.01562C153.654 8.51562 153.553 8.14258 153.35 7.89648C153.15 7.65039 152.832 7.52734 152.395 7.52734C151.816 7.52734 151.391 7.70117 151.117 8.04883C150.848 8.39258 150.713 8.9707 150.713 9.7832V13H149.336V3.88281H150.713V6.19727C150.713 6.56836 150.689 6.96484 150.643 7.38672H150.73C150.918 7.07422 151.178 6.83203 151.51 6.66016C151.846 6.48828 152.236 6.40234 152.682 6.40234C154.252 6.40234 155.037 7.19336 155.037 8.77539V13ZM159.367 12.0039C159.703 12.0039 160.039 11.9512 160.375 11.8457V12.8828C160.223 12.9492 160.025 13.0039 159.783 13.0469C159.545 13.0938 159.297 13.1172 159.039 13.1172C157.734 13.1172 157.082 12.4297 157.082 11.0547V7.5625H156.197V6.95312L157.146 6.44922L157.615 5.07812H158.465V6.51953H160.311V7.5625H158.465V11.0312C158.465 11.3633 158.547 11.6094 158.711 11.7695C158.879 11.9258 159.098 12.0039 159.367 12.0039ZM166.029 11.1543C166.029 11.7871 165.799 12.2734 165.338 12.6133C164.877 12.9492 164.217 13.1172 163.357 13.1172C162.494 13.1172 161.801 12.9863 161.277 12.7246V11.5352C162.039 11.8867 162.748 12.0625 163.404 12.0625C164.252 12.0625 164.676 11.8066 164.676 11.2949C164.676 11.1309 164.629 10.9941 164.535 10.8848C164.441 10.7754 164.287 10.6621 164.072 10.5449C163.857 10.4277 163.559 10.2949 163.176 10.1465C162.43 9.85742 161.924 9.56836 161.658 9.2793C161.396 8.99023 161.266 8.61523 161.266 8.1543C161.266 7.59961 161.488 7.16992 161.934 6.86523C162.383 6.55664 162.992 6.40234 163.762 6.40234C164.523 6.40234 165.244 6.55664 165.924 6.86523L165.479 7.90234C164.779 7.61328 164.191 7.46875 163.715 7.46875C162.988 7.46875 162.625 7.67578 162.625 8.08984C162.625 8.29297 162.719 8.46484 162.906 8.60547C163.098 8.74609 163.512 8.93945 164.148 9.18555C164.684 9.39258 165.072 9.58203 165.314 9.75391C165.557 9.92578 165.736 10.125 165.854 10.3516C165.971 10.5742 166.029 10.8418 166.029 11.1543ZM172.188 8.41797H173.16C173.812 8.41797 174.285 8.29688 174.578 8.05469C174.871 7.8125 175.018 7.45312 175.018 6.97656C175.018 6.49219 174.859 6.14453 174.543 5.93359C174.227 5.72266 173.75 5.61719 173.113 5.61719H172.188V8.41797ZM172.188 9.57812V13H170.787V4.43359H173.207C174.312 4.43359 175.131 4.64062 175.662 5.05469C176.193 5.46875 176.459 6.09375 176.459 6.92969C176.459 7.99609 175.904 8.75586 174.795 9.20898L177.215 13H175.621L173.57 9.57812H172.188ZM181.146 13.1172C180.139 13.1172 179.35 12.8242 178.779 12.2383C178.213 11.6484 177.93 10.8379 177.93 9.80664C177.93 8.74805 178.193 7.91602 178.721 7.31055C179.248 6.70508 179.973 6.40234 180.895 6.40234C181.75 6.40234 182.426 6.66211 182.922 7.18164C183.418 7.70117 183.666 8.41602 183.666 9.32617V10.0703H179.348C179.367 10.6992 179.537 11.1836 179.857 11.5234C180.178 11.8594 180.629 12.0273 181.211 12.0273C181.594 12.0273 181.949 11.9922 182.277 11.9219C182.609 11.8477 182.965 11.7266 183.344 11.5586V12.6777C183.008 12.8379 182.668 12.9512 182.324 13.0176C181.98 13.084 181.588 13.1172 181.146 13.1172ZM180.895 7.44531C180.457 7.44531 180.105 7.58398 179.84 7.86133C179.578 8.13867 179.422 8.54297 179.371 9.07422H182.312C182.305 8.53906 182.176 8.13477 181.926 7.86133C181.676 7.58398 181.332 7.44531 180.895 7.44531ZM189.584 11.1543C189.584 11.7871 189.354 12.2734 188.893 12.6133C188.432 12.9492 187.771 13.1172 186.912 13.1172C186.049 13.1172 185.355 12.9863 184.832 12.7246V11.5352C185.594 11.8867 186.303 12.0625 186.959 12.0625C187.807 12.0625 188.23 11.8066 188.23 11.2949C188.23 11.1309 188.184 10.9941 188.09 10.8848C187.996 10.7754 187.842 10.6621 187.627 10.5449C187.412 10.4277 187.113 10.2949 186.73 10.1465C185.984 9.85742 185.479 9.56836 185.213 9.2793C184.951 8.99023 184.82 8.61523 184.82 8.1543C184.82 7.59961 185.043 7.16992 185.488 6.86523C185.938 6.55664 186.547 6.40234 187.316 6.40234C188.078 6.40234 188.799 6.55664 189.479 6.86523L189.033 7.90234C188.334 7.61328 187.746 7.46875 187.27 7.46875C186.543 7.46875 186.18 7.67578 186.18 8.08984C186.18 8.29297 186.273 8.46484 186.461 8.60547C186.652 8.74609 187.066 8.93945 187.703 9.18555C188.238 9.39258 188.627 9.58203 188.869 9.75391C189.111 9.92578 189.291 10.125 189.408 10.3516C189.525 10.5742 189.584 10.8418 189.584 11.1543ZM193.908 13.1172C192.9 13.1172 192.111 12.8242 191.541 12.2383C190.975 11.6484 190.691 10.8379 190.691 9.80664C190.691 8.74805 190.955 7.91602 191.482 7.31055C192.01 6.70508 192.734 6.40234 193.656 6.40234C194.512 6.40234 195.188 6.66211 195.684 7.18164C196.18 7.70117 196.428 8.41602 196.428 9.32617V10.0703H192.109C192.129 10.6992 192.299 11.1836 192.619 11.5234C192.939 11.8594 193.391 12.0273 193.973 12.0273C194.355 12.0273 194.711 11.9922 195.039 11.9219C195.371 11.8477 195.727 11.7266 196.105 11.5586V12.6777C195.77 12.8379 195.43 12.9512 195.086 13.0176C194.742 13.084 194.35 13.1172 193.908 13.1172ZM193.656 7.44531C193.219 7.44531 192.867 7.58398 192.602 7.86133C192.34 8.13867 192.184 8.54297 192.133 9.07422H195.074C195.066 8.53906 194.938 8.13477 194.688 7.86133C194.438 7.58398 194.094 7.44531 193.656 7.44531ZM201.279 6.40234C201.557 6.40234 201.785 6.42188 201.965 6.46094L201.83 7.74414C201.635 7.69727 201.432 7.67383 201.221 7.67383C200.67 7.67383 200.223 7.85352 199.879 8.21289C199.539 8.57227 199.369 9.03906 199.369 9.61328V13H197.992V6.51953H199.07L199.252 7.66211H199.322C199.537 7.27539 199.816 6.96875 200.16 6.74219C200.508 6.51562 200.881 6.40234 201.279 6.40234ZM204.648 13L202.188 6.51953H203.641L204.959 10.2871C205.186 10.9199 205.322 11.4316 205.369 11.8223H205.416C205.451 11.541 205.588 11.0293 205.826 10.2871L207.145 6.51953H208.609L206.137 13H204.648ZM212.424 13.1172C211.416 13.1172 210.627 12.8242 210.057 12.2383C209.49 11.6484 209.207 10.8379 209.207 9.80664C209.207 8.74805 209.471 7.91602 209.998 7.31055C210.525 6.70508 211.25 6.40234 212.172 6.40234C213.027 6.40234 213.703 6.66211 214.199 7.18164C214.695 7.70117 214.943 8.41602 214.943 9.32617V10.0703H210.625C210.645 10.6992 210.814 11.1836 211.135 11.5234C211.455 11.8594 211.906 12.0273 212.488 12.0273C212.871 12.0273 213.227 11.9922 213.555 11.9219C213.887 11.8477 214.242 11.7266 214.621 11.5586V12.6777C214.285 12.8379 213.945 12.9512 213.602 13.0176C213.258 13.084 212.865 13.1172 212.424 13.1172ZM212.172 7.44531C211.734 7.44531 211.383 7.58398 211.117 7.86133C210.855 8.13867 210.699 8.54297 210.648 9.07422H213.59C213.582 8.53906 213.453 8.13477 213.203 7.86133C212.953 7.58398 212.609 7.44531 212.172 7.44531ZM218.693 13.1172C217.885 13.1172 217.254 12.8242 216.801 12.2383C216.348 11.6523 216.121 10.8301 216.121 9.77148C216.121 8.70898 216.35 7.88281 216.807 7.29297C217.268 6.69922 217.904 6.40234 218.717 6.40234C219.568 6.40234 220.217 6.7168 220.662 7.3457H220.732C220.666 6.88086 220.633 6.51367 220.633 6.24414V3.88281H222.016V13H220.938L220.697 12.1504H220.633C220.191 12.7949 219.545 13.1172 218.693 13.1172ZM219.062 12.0039C219.629 12.0039 220.041 11.8457 220.299 11.5293C220.557 11.209 220.689 10.6914 220.697 9.97656V9.7832C220.697 8.9668 220.564 8.38672 220.299 8.04297C220.033 7.69922 219.617 7.52734 219.051 7.52734C218.566 7.52734 218.193 7.72461 217.932 8.11914C217.67 8.50977 217.539 9.06836 217.539 9.79492C217.539 10.5137 217.666 11.0625 217.92 11.4414C218.174 11.8164 218.555 12.0039 219.062 12.0039Z" fill="#C7B299"/>
<path d="M5.42563 7.85217C5.46333 7.66667 5.53187 7.50114 5.63125 7.35559C5.73064 7.21005 5.86772 7.09304 6.03564 7.00457C6.19671 6.9218 6.3989 6.87614 6.64907 6.87329C6.81357 6.87614 6.96436 6.89897 7.09459 6.94749C7.23509 6.99886 7.35161 7.06735 7.45099 7.15297C7.55038 7.23858 7.62577 7.34132 7.6806 7.45548C7.73544 7.56963 7.76628 7.69235 7.77313 7.82078H9C8.98972 7.55251 8.92461 7.30708 8.81151 7.08447C8.69842 6.86187 8.53393 6.67066 8.32831 6.50799C8.12269 6.34532 7.87594 6.2226 7.58807 6.13413C7.30021 6.04566 6.98149 6 6.63194 6C6.18643 6 5.79918 6.06279 5.47019 6.19121C5.14119 6.31963 4.86703 6.49372 4.6477 6.71632C4.42838 6.93893 4.26388 7.19578 4.15764 7.48973C4.05141 7.78368 4 8.09475 4 8.42295V8.57991C4 8.91096 4.05483 9.22203 4.16107 9.51598C4.26731 9.80993 4.4318 10.0668 4.65113 10.2865C4.87046 10.5063 5.14462 10.6804 5.47704 10.8088C5.80946 10.9372 6.19671 11 6.64222 11C6.96436 11 7.26594 10.9572 7.54695 10.8687C7.82796 10.7803 8.07471 10.6604 8.28718 10.5063C8.49966 10.3522 8.67101 10.1752 8.79438 9.96975C8.91775 9.76427 8.98972 9.54737 9 9.31336H7.77313C7.76628 9.43322 7.73201 9.54167 7.67032 9.64441C7.60864 9.74715 7.52639 9.83276 7.42358 9.90411C7.32077 9.97546 7.20082 10.0325 7.06374 10.0725C6.93352 10.1096 6.79644 10.1296 6.64907 10.1296C6.40233 10.1239 6.20014 10.0811 6.03564 9.99543C5.86429 9.90411 5.72721 9.7871 5.62783 9.64155C5.52844 9.496 5.4599 9.33048 5.42221 9.14212C5.38451 8.95377 5.3708 8.77112 5.3708 8.57991V8.42295C5.3708 8.22888 5.38794 8.03767 5.42563 7.85217Z" fill="#C7B299"/>
<path fill-rule="evenodd" clip-rule="evenodd" d="M0 8.5C0 4.90875 2.90875 2 6.5 2C10.0912 2 13 4.90875 13 8.5C13 12.0912 10.0912 15 6.5 15C2.90875 15 0 12.0912 0 8.5ZM1.3 8.5C1.3 11.3665 3.6335 13.7 6.5 13.7C9.3665 13.7 11.7 11.3665 11.7 8.5C11.7 5.6335 9.3665 3.3 6.5 3.3C3.6335 3.3 1.3 5.6335 1.3 8.5Z" fill="#C7B299"/>
</svg>
