<svg width="23" height="23" viewBox="0 0 23 23" fill="none" xmlns="http://www.w3.org/2000/svg">
<path d="M17.001 9.88281C17.001 9.38661 16.5987 8.98438 16.1025 8.98438H6.84863C6.35243 8.98438 5.9502 9.38661 5.9502 9.88281C5.9502 10.379 6.35243 10.7812 6.84863 10.7812H16.1025C16.5987 10.7812 17.001 10.379 17.001 9.88281Z" fill="#C7B299"/>
<path d="M6.84863 12.5781C6.35243 12.5781 5.9502 12.9804 5.9502 13.4766C5.9502 13.9728 6.35243 14.375 6.84863 14.375H12.4689C12.9651 14.375 13.3673 13.9728 13.3673 13.4766C13.3673 12.9804 12.9651 12.5781 12.4689 12.5781H6.84863Z" fill="#C7B299"/>
<path d="M8.9601 21.2031H5.95532C4.96453 21.2031 4.15845 20.397 4.15845 19.4062V3.59375C4.15845 2.60295 4.96453 1.79688 5.95532 1.79688H17.0011C17.9919 1.79688 18.798 2.60295 18.798 3.59375V9.11914C18.798 9.61535 19.2002 10.0176 19.6964 10.0176C20.1926 10.0176 20.5949 9.61535 20.5949 9.11914V3.59375C20.5949 1.61216 18.9827 0 17.0011 0H5.95532C3.97373 0 2.36157 1.61216 2.36157 3.59375V19.4062C2.36157 21.3878 3.97373 23 5.95532 23H8.9601C9.45631 23 9.85854 22.5978 9.85854 22.1016C9.85854 21.6054 9.45631 21.2031 8.9601 21.2031Z" fill="#C7B299"/>
<path fill-rule="evenodd" clip-rule="evenodd" d="M22.1862 13.0081C21.1353 11.9572 19.4254 11.9572 18.3751 13.0074L13.4426 17.929C13.3378 18.0336 13.2606 18.1623 13.2175 18.3039L12.1433 21.8404C12.0481 22.1539 12.131 22.4944 12.3599 22.7289C12.5313 22.9046 12.7642 23 13.003 23C13.0829 23 13.1636 22.9893 13.2428 22.9673L16.8691 21.9628C17.0184 21.9215 17.1544 21.8423 17.264 21.7329L22.1862 16.8199C23.2371 15.769 23.2371 14.0591 22.1862 13.0081ZM16.1618 20.2943L14.3374 20.7996L14.8713 19.0419L18.1995 15.721L19.4704 16.9919L16.1618 20.2943ZM20.7422 15.7225L20.9163 15.5488C21.2659 15.199 21.2659 14.6291 20.9156 14.2788C20.5653 13.9285 19.9954 13.9285 19.6451 14.2788L19.4716 14.4519L20.7422 15.7225Z" fill="#C7B299"/>
<path d="M16.1025 5.39062H6.84863C6.35243 5.39062 5.9502 5.79286 5.9502 6.28906C5.9502 6.78527 6.35243 7.1875 6.84863 7.1875H16.1025C16.5987 7.1875 17.001 6.78527 17.001 6.28906C17.001 5.79286 16.5987 5.39062 16.1025 5.39062Z" fill="#C7B299"/>
</svg>
